<svg xmlns="http://www.w3.org/2000/svg" viewBox="0 0 400 400">
  <rect width="400" height="400" fill="#059669" rx="80" />
  <g transform="translate(45, 10) scale(0.6)" fill="#ffffff">
    <!-- シカのシルエット（頭部と角） -->
    <path d="M466,227.1c-13.6-7.3-30.8-4.2-41,8.1L402,263c-38.3,1.4-69.6-28.7-71-66.8v-72.9c0-12.7-10.3-23.1-23.1-23.1
        c-9,0-16.8,5.4-20.7,13.2L262,176.8c-1.3,4.6-2.9,9.1-4.7,13.4c-8.9,21-27,35-49.3,38.2L159.9,235.3c-23.5,3.3-43,18.4-53.7,39.6
        l-6.1,12c-5,9.8-15.6,15.2-26.6,15.2h0c-15.8,0-28.8-12.5-29.4-28.3C42.8,241.1,68.9,214.3,101,210.8l47.1-5.1
        c19.3-2.1,38-10.4,49.1-26.2c0.2-0.2,0.3-0.5,0.5-0.7c15.1-22.3,15.2-51.4,0.1-73.4l-7.7-11.2c-5.7-8.2-12.2-15.6-19.3-22
        c-2.3-2.1-4-5-4.8-8.1l-10-38c-3-11.4,3.7-22.8,15.1-25.9c7.6-2,15.4-0.1,21,4.9l46.2,40.8c21.8,19.3,55.5,19.3,77.3,0l37-32.6
        c11-9.7,28-8.l37.7,2.9c13.7,1.8,23.3,14.2,21.5,27.8c-1.3,10-9.2,18-19,19.9l-26.8,5.4c-20.1,4-37,17.4-44.5,36
        l-6.2,15.3c15.4-1.3,30.3,3.7,40.7,13.7C365,195.9,400.4,260.6,448,252C459.7,250,470,257.6,472,269.8
        C472.9,275.5,470.5,281.3,466,227.1z M342.3,165c4.1-4.1,4.1-10.8,0-15s-10.8-4.1-15,0c-4.1,4.1-4.1,10.8,0,15S338.2,169.2,342.3,165z" />
  </g>
</svg>
